HIERARCHY
ROOT Hips
{
  OFFSET 0.000000 0.000000 0.000000
  CHANNELS 6 Xposition Yposition Zposition Zrotation Yrotation Xrotation
  JOINT Spine
  {
    OFFSET 0.015939 2.131027 0.080075
    CHANNELS 3 Zrotation Yrotation Xrotation
    JOINT Spine1
    {
      OFFSET 0.013929 2.097232 0.183376
      CHANNELS 3 Zrotation Yrotation Xrotation
      JOINT Spine2
      {
        OFFSET 0.006777 2.108475 0.143745
        CHANNELS 3 Zrotation Yrotation Xrotation
        JOINT Neck
        {
          OFFSET 0.053514 1.389151 0.324936
          CHANNELS 3 Zrotation Yrotation Xrotation
          JOINT Head
          {
            OFFSET -0.004333 1.477022 -0.110557
            CHANNELS 3 Zrotation Yrotation Xrotation
            End Site
            {
              OFFSET 0 0 0
            }
          }
        }
        JOINT LeftShoulder
        {
          OFFSET 2.871981 0.922487 0.111319
          CHANNELS 3 Zrotation Yrotation Xrotation
          JOINT LeftArm
          {
            OFFSET 5.527310 -0.000000 0.000000
            CHANNELS 3 Zrotation Yrotation Xrotation
            JOINT LeftForeArm
            {
              OFFSET 3.110590 -0.000000 0.000000
              CHANNELS 3 Zrotation Yrotation Xrotation
              JOINT LeftHand
              {
                OFFSET 0.419626 -0.000000 0.000000
                CHANNELS 3 Zrotation Yrotation Xrotation
                JOINT LeftHandIndex1
                {
                  OFFSET 0.338313 -0.000000 0.000000
                  CHANNELS 3 Zrotation Yrotation Xrotation
                  End Site
                  {
                    OFFSET 0 0 0
                  }
                }
              }
            }
          }
        }
        JOINT RightShoulder
        {
          OFFSET -2.947098 0.680721 0.321868
          CHANNELS 3 Zrotation Yrotation Xrotation
          JOINT RightArm
          {
            OFFSET -5.253960 -0.000000 -0.000000
            CHANNELS 3 Zrotation Yrotation Xrotation
            JOINT RightForeArm
            {
              OFFSET -3.105670 -0.000000 0.000000
              CHANNELS 3 Zrotation Yrotation Xrotation
              JOINT RightHand
              {
                OFFSET -0.498676 -0.000000 0.000000
                CHANNELS 3 Zrotation Yrotation Xrotation
                JOINT RightHandIndex1
                {
                  OFFSET -0.402045 -0.000000 0.000000
                  CHANNELS 3 Zrotation Yrotation Xrotation
                  End Site
                  {
                    OFFSET 0 0 0
                  }
                }
              }
            }
          }
        }
      }
    }
  }
  JOINT LeftUpLeg
  {
    OFFSET 2.068103 -5.682070 0.000000
    CHANNELS 3 Zrotation Yrotation Xrotation
    JOINT LeftLeg
    {
      OFFSET 2.466306 -6.776126 0.000000
      CHANNELS 3 Zrotation Yrotation Xrotation
      JOINT LeftFoot
      {
        OFFSET 0.260310 -0.715197 1.995450
        CHANNELS 3 Zrotation Yrotation Xrotation
        JOINT LeftToeBase
        {
          OFFSET 0.000000 -0.000000 1.059570
          CHANNELS 3 Zrotation Yrotation Xrotation
          End Site
          {
            OFFSET 0 0 0
          }
        }
      }
    }
  }
  JOINT RightUpLeg
  {
    OFFSET -2.173428 -5.971448 0.000000
    CHANNELS 3 Zrotation Yrotation Xrotation
    JOINT RightLeg
    {
      OFFSET -2.523718 -6.933863 0.000000
      CHANNELS 3 Zrotation Yrotation Xrotation
      JOINT RightFoot
      {
        OFFSET -0.225383 -0.619235 2.114475
        CHANNELS 3 Zrotation Yrotation Xrotation
        JOINT RightToeBase
        {
          OFFSET -0.000000 -0.000000 1.105060
          CHANNELS 3 Zrotation Yrotation Xrotation
          End Site
          {
            OFFSET 0 0 0
          }
        }
      }
    }
  }
}
MOTION
Frames: 15
Frame Time: 0.00833333
-4.413410 15.408400 41.248800 181.481000 4.563920 -160.252000 -17.467700 -12.458700 -26.060500 0.000000 0.000000 19.120000 9.792600 0.000000 -9.969680 0.000000 0.000000 -11.768300 15.544600 18.804100 -36.166600 0.000000 0.000000 32.915900 -7.740390 0.000000 -15.411400 0.000000 0.000000 -12.838900 -1.453670 1.213760 -20.393400 -1.013580 2.990180 -5.933780 0.501714 1.902250 4.949130 6.422130 6.565130 -21.724500 -1.569390 3.350350 12.120300 -0.000000 0.000000 0.000000 87.316400 -9.258310 -40.928200 0.000000 0.000000 32.242600 -4.932380 0.000000 -29.215700 0.000000 0.000000 7.125020 -0.000000 0.000000 0.000000 -86.223900 7.674760 -34.086800 0.000000 0.000000 40.376800 -15.362900 0.000000 -19.487100 0.000000 0.000000 7.125020
-4.424120 15.406300 41.254600 181.515000 4.438440 -160.181000 -17.455800 -12.426400 -26.411100 0.000000 0.000000 19.496400 9.696170 0.000000 -9.998540 0.000000 0.000000 -12.029200 15.499900 18.835500 -36.274200 0.000000 0.000000 32.958600 -7.903700 0.000000 -15.389400 0.000000 0.000000 -12.925700 -1.480010 1.222570 -20.322400 -1.055110 3.002510 -5.910430 0.472879 1.905650 4.938360 6.334890 6.543710 -21.843100 -1.548280 3.345230 12.108200 -0.000000 0.000000 0.000000 87.033800 -8.957320 -40.954500 0.000000 0.000000 32.471600 -4.818110 0.000000 -29.447300 0.000000 0.000000 7.125020 -0.000000 0.000000 0.000000 -86.081800 7.508990 -34.247000 0.000000 0.000000 39.661700 -15.530600 0.000000 -19.467900 0.000000 0.000000 7.125020
-4.435030 15.403900 41.260700 181.565000 4.294340 -160.113000 -17.420400 -12.410700 -26.788400 0.000000 0.000000 19.920200 9.606140 0.000000 -10.044900 0.000000 0.000000 -12.253900 15.481200 18.850900 -36.367700 0.000000 0.000000 32.989400 -8.058580 0.000000 -15.366500 0.000000 0.000000 -13.001000 -1.487750 1.235090 -20.236100 -1.099890 3.015390 -5.887730 0.429511 1.909290 4.919960 6.266040 6.523550 -21.967700 -1.530660 3.339680 12.100000 0.000000 0.000000 0.000000 86.751700 -8.702250 -40.959100 0.000000 0.000000 32.673700 -4.822500 0.000000 -29.723500 0.000000 0.000000 7.125020 0.000000 0.000000 0.000000 -85.933100 7.301000 -34.406100 0.000000 0.000000 38.917200 -15.722100 0.000000 -19.428600 0.000000 0.000000 7.125020
-4.446090 15.401100 41.267200 181.633000 4.131680 -160.051000 -17.359800 -12.413000 -27.189100 0.000000 0.000000 20.391000 9.521130 0.000000 -10.104900 0.000000 0.000000 -12.441400 15.489100 18.857500 -36.444400 0.000000 0.000000 33.007500 -8.210580 0.000000 -15.341200 0.000000 0.000000 -13.065200 -1.485510 1.244230 -20.141900 -1.131680 3.019620 -5.860680 0.392046 1.908210 4.901870 6.179490 6.496970 -22.080300 -1.507910 3.331730 12.084300 -0.000000 -0.000000 0.000000 86.482500 -8.458450 -40.938300 0.000000 0.000000 32.841200 -4.921660 0.000000 -30.020700 0.000000 0.000000 7.125020 -0.000000 -0.000000 0.000000 -85.762200 7.076010 -34.556100 0.000000 0.000000 38.136100 -15.947400 0.000000 -19.381300 0.000000 0.000000 7.125020
-4.457230 15.397800 41.274000 181.723000 3.949990 -159.993000 -17.268100 -12.434400 -27.612900 0.000000 0.000000 20.905700 9.442030 0.000000 -10.177700 0.000000 0.000000 -12.603000 15.529000 18.855500 -36.503800 0.000000 0.000000 33.012600 -8.358760 0.000000 -15.314800 0.000000 0.000000 -13.129800 -1.463270 1.255270 -20.037500 -1.158930 3.020350 -5.827650 0.347004 1.904750 4.885570 6.112740 6.477140 -22.210200 -1.489920 3.326540 12.075200 0.000000 0.000000 0.000000 86.223500 -8.255690 -40.891700 0.000000 0.000000 32.983100 -5.073270 0.000000 -30.295300 0.000000 0.000000 7.125020 0.000000 0.000000 0.000000 -85.573900 6.803770 -34.682100 0.000000 0.000000 37.297600 -16.194000 0.000000 -19.353500 0.000000 0.000000 7.125020
-4.468360 15.394100 41.281000 181.833000 3.751030 -159.940000 -17.150000 -12.471400 -28.054600 0.000000 0.000000 21.456900 9.371300 0.000000 -10.261900 0.000000 0.000000 -12.750300 15.595800 18.849900 -36.546800 0.000000 0.000000 33.005600 -8.510430 0.000000 -15.283200 0.000000 0.000000 -13.185100 -1.431150 1.263260 -19.925300 -1.175200 3.013340 -5.791470 0.306007 1.897130 4.868440 6.036500 6.448850 -22.323300 -1.471750 3.317020 12.058700 0.000000 0.000000 0.000000 85.985900 -8.089340 -40.832800 0.000000 0.000000 33.102400 -5.219680 0.000000 -30.540300 0.000000 0.000000 7.125020 0.000000 0.000000 0.000000 -85.361900 6.492620 -34.788700 0.000000 0.000000 36.405100 -16.435100 0.000000 -19.338000 0.000000 0.000000 7.125020
-4.479370 15.390000 41.288400 181.961000 3.534280 -159.889000 -17.004600 -12.519800 -28.515200 0.000000 0.000000 22.034400 9.301710 0.000000 -10.371600 0.000000 0.000000 -12.827300 15.687700 18.841000 -36.580700 0.000000 0.000000 32.988700 -8.668870 0.000000 -15.242800 0.000000 0.000000 -13.244100 -1.388060 1.269490 -19.808500 -1.182940 2.999790 -5.748090 0.266357 1.885590 4.856620 5.967900 6.423110 -22.457000 -1.457060 3.308000 12.049500 0.000000 0.000000 0.000000 85.769600 -7.965420 -40.747700 0.000000 0.000000 33.192800 -5.360900 0.000000 -30.765100 0.000000 0.000000 7.125020 0.000000 0.000000 0.000000 -85.125700 6.138460 -34.863400 0.000000 0.000000 35.457200 -16.632200 0.000000 -19.347000 0.000000 0.000000 7.125020
-4.490190 15.385500 41.296200 182.105000 3.303430 -159.835000 -16.836100 -12.573600 -28.990600 0.000000 0.000000 22.625300 9.227460 0.000000 -10.482800 0.000000 0.000000 -12.930000 15.797600 18.833200 -36.612800 0.000000 0.000000 32.965300 -8.835420 0.000000 -15.196300 0.000000 0.000000 -13.303400 -1.343870 1.271570 -19.694800 -1.177130 2.978850 -5.698230 0.239119 1.869860 4.852640 5.895710 6.396630 -22.588500 -1.443430 3.298930 12.037500 -0.000000 0.000000 0.000000 85.585900 -7.884680 -40.644200 0.000000 0.000000 33.258100 -5.454140 0.000000 -30.992000 0.000000 0.000000 7.125020 -0.000000 0.000000 0.000000 -84.858800 5.751440 -34.921700 0.000000 0.000000 34.479300 -16.801400 0.000000 -19.364400 0.000000 0.000000 7.125020
-4.500820 15.380800 41.304600 182.257000 3.062340 -159.777000 -16.651900 -12.632000 -29.476300 0.000000 0.000000 23.217000 9.147420 0.000000 -10.593800 0.000000 0.000000 -13.034700 15.917000 18.823800 -36.649400 0.000000 0.000000 32.938900 -9.012200 0.000000 -15.144000 0.000000 0.000000 -13.376200 -1.301390 1.272730 -19.577300 -1.167100 2.957070 -5.650340 0.216976 1.853930 4.844160 5.825780 6.364240 -22.717200 -1.432690 3.285730 12.026200 0.000000 -0.000000 0.000000 85.430200 -7.858730 -40.522700 0.000000 0.000000 33.282200 -5.515040 0.000000 -31.188400 0.000000 0.000000 7.125020 0.000000 -0.000000 0.000000 -84.553700 5.278590 -34.950500 0.000000 0.000000 33.429700 -16.914900 0.000000 -19.389300 0.000000 0.000000 7.125020
-4.511290 15.375800 41.313200 182.412000 2.820330 -159.714000 -16.459400 -12.692200 -29.962300 0.000000 0.000000 23.796600 9.064870 0.000000 -10.703700 0.000000 0.000000 -13.154000 16.036400 18.820400 -36.693800 0.000000 0.000000 32.912300 -9.194270 0.000000 -15.091100 0.000000 0.000000 -13.454500 -1.272440 1.269400 -19.470800 -1.144820 2.930530 -5.594250 0.215086 1.834980 4.848830 5.737200 6.326960 -22.849700 -1.417140 3.270820 12.012300 0.000000 -0.000000 0.000000 85.308700 -7.869000 -40.381900 0.000000 0.000000 33.282000 -5.547370 0.000000 -31.339200 0.000000 0.000000 7.125020 0.000000 -0.000000 0.000000 -84.204400 4.754120 -34.947100 0.000000 0.000000 32.339100 -16.980200 0.000000 -19.410300 0.000000 0.000000 7.125020
-4.521610 15.370800 41.322000 182.567000 2.581250 -159.648000 -16.264100 -12.752600 -30.440900 0.000000 0.000000 24.352300 8.980300 0.000000 -10.803800 0.000000 0.000000 -13.286700 16.154200 18.813800 -36.746400 0.000000 0.000000 32.886700 -9.375470 0.000000 -15.036500 0.000000 0.000000 -13.547400 -1.257480 1.265380 -19.365700 -1.120120 2.907110 -5.545400 0.224329 1.818290 4.845640 5.669760 6.296660 -22.961900 -1.407940 3.259050 11.996400 0.000000 0.000000 0.000000 85.217100 -7.935190 -40.243800 0.000000 0.000000 33.256800 -5.592510 0.000000 -31.420500 0.000000 0.000000 7.125020 0.000000 0.000000 0.000000 -83.827000 4.180200 -34.961700 0.000000 0.000000 31.249800 -16.967300 0.000000 -19.471700 0.000000 0.000000 7.125020
-4.531780 15.365800 41.330800 182.717000 2.353230 -159.578000 -16.075800 -12.804000 -30.903300 0.000000 0.000000 24.874900 8.890720 0.000000 -10.896500 0.000000 0.000000 -13.381800 16.264200 18.806000 -36.807100 0.000000 0.000000 32.861800 -9.547330 0.000000 -14.982200 0.000000 0.000000 -13.635500 -1.266140 1.259510 -19.265000 -1.089670 2.886220 -5.499300 0.253755 1.803080 4.840420 5.587520 6.258960 -23.056600 -1.393400 3.244030 11.974300 0.000000 0.000000 0.000000 85.155500 -8.037640 -40.099100 0.000000 0.000000 33.200200 -5.660150 0.000000 -31.417700 0.000000 0.000000 7.125020 0.000000 0.000000 0.000000 -83.421200 3.584220 -35.000300 0.000000 0.000000 30.196500 -16.917800 0.000000 -19.546000 0.000000 0.000000 7.125020
-4.541760 15.361100 41.339500 182.861000 2.140070 -159.506000 -15.895100 -12.844600 -31.344000 0.000000 0.000000 25.358100 8.797700 0.000000 -10.985800 0.000000 0.000000 -13.428600 16.369200 18.789700 -36.874200 0.000000 0.000000 32.836000 -9.697960 0.000000 -14.930700 0.000000 0.000000 -13.720000 -1.298850 1.252070 -19.164100 -1.055570 2.868480 -5.458380 0.301242 1.789820 4.828170 5.531590 6.237100 -23.149900 -1.384190 3.236840 11.957900 -0.000000 -0.000000 0.000000 85.125800 -8.186410 -39.958900 0.000000 0.000000 33.130000 -5.774810 0.000000 -31.367000 0.000000 0.000000 7.125020 -0.000000 -0.000000 0.000000 -83.001300 2.990590 -35.081400 0.000000 0.000000 29.207200 -16.826500 0.000000 -19.645400 0.000000 0.000000 7.125020
-4.551470 15.356800 41.348100 182.999000 1.942410 -159.435000 -15.727700 -12.866400 -31.757000 0.000000 0.000000 25.799800 8.697520 0.000000 -11.068000 0.000000 0.000000 -13.464400 16.469300 18.767100 -36.941900 0.000000 0.000000 32.807500 -9.828680 0.000000 -14.877900 0.000000 0.000000 -13.781600 -1.357220 1.245140 -19.067700 -1.021440 2.856660 -5.418240 0.364794 1.779500 4.816310 5.494360 6.218760 -23.227500 -1.380630 3.230790 11.939100 0.000000 -0.000000 0.000000 85.124700 -8.384100 -39.821600 0.000000 0.000000 33.053100 -5.890780 0.000000 -31.300000 0.000000 0.000000 7.125020 0.000000 -0.000000 0.000000 -82.566800 2.386720 -35.199200 0.000000 0.000000 28.286500 -16.717000 0.000000 -19.743900 0.000000 0.000000 7.125020
-4.560890 15.353000 41.356900 183.130000 1.758400 -159.363000 -15.570700 -12.873300 -32.144600 0.000000 0.000000 26.199800 8.591880 0.000000 -11.161000 0.000000 0.000000 -13.404400 16.566000 18.733700 -37.011100 0.000000 0.000000 32.774600 -9.935140 0.000000 -14.821400 0.000000 0.000000 -13.839100 -1.436240 1.237900 -18.982500 -0.989921 2.846620 -5.363510 0.438449 1.768690 4.825070 5.611460 6.282520 -23.433900 -1.418840 3.260850 11.984400 -0.000000 -0.000000 0.000000 85.141400 -8.622200 -39.656800 0.000000 0.000000 32.972700 -5.992130 0.000000 -31.245100 0.000000 0.000000 7.125020 -0.000000 -0.000000 0.000000 -82.122600 1.765090 -35.301600 0.000000 0.000000 27.411400 -16.638500 0.000000 -19.823800 0.000000 0.000000 7.125020
